<svg width="153" height="36" viewBox="0 0 153 36" fill="none" xmlns="http://www.w3.org/2000/svg">
<mask id="path-1-inside-1_1_62" fill="white">
<path d="M3.23844 9.50667L0.324921 2.22285H22.1308L20.7651 9.50667H3.23844ZM2.82873 11.7829H11.7059V14.5143H20.2188L18.8531 21.7981H11.7059V27.7162H22.4495L21.0838 35H2.82873V11.7829ZM35.2776 16.4263V22.7541H24.3519V16.4263H35.2776ZM47.8703 19.9771V28.9909H48.3255C49.843 28.9909 50.9507 28.7177 51.6488 28.1714C52.3771 27.5948 52.7413 26.5933 52.7413 25.1669C52.7413 23.8618 52.3923 22.8451 51.6943 22.1168C53.0903 21.8133 54.365 21.4187 55.5183 20.9331C56.6715 20.4476 57.6427 19.8102 58.4318 19.0211C59.7065 19.7799 60.6169 20.751 61.1632 21.9347C61.7095 23.0879 61.9827 24.5143 61.9827 26.2139C61.9827 29.0364 60.9508 31.2063 58.887 32.7238C56.8233 34.2413 53.6821 35 49.4636 35H38.9931V10.7358H47.8703V15.6979H48.28C49.6457 15.6979 50.6321 15.4399 51.239 14.924C51.8764 14.3777 52.195 13.4369 52.195 12.1015C52.195 10.7358 51.8764 9.79498 51.239 9.27905C50.6321 8.73276 49.6457 8.45962 48.28 8.45962H38.9931L36.4893 2.22285H50.1465C53.8187 2.22285 56.4895 2.98158 58.1587 4.49905C59.8279 6.01651 60.6625 8.14095 60.6625 10.8724C60.6625 12.6023 60.2679 14.059 59.4788 15.2427C58.7201 16.3959 57.7034 17.3216 56.4288 18.0196C55.1541 18.7176 53.7732 19.2184 52.2861 19.5219C50.799 19.8254 49.327 19.9771 47.8703 19.9771ZM76.2224 35.4097V28.7177C77.3149 27.9893 77.8612 25.7435 77.8612 21.9802C77.8612 18.1258 77.3149 15.8648 76.2224 15.1971V8.50514C79.8643 8.65689 82.4591 9.79498 84.0069 11.9194C85.5547 14.0135 86.3286 17.3519 86.3286 21.9347C86.3286 26.5174 85.5547 29.871 84.0069 31.9954C82.4591 34.0895 79.8643 35.2276 76.2224 35.4097ZM73.9462 28.7632V35.4097C70.3043 35.2276 67.7094 34.0895 66.1616 31.9954C64.6138 29.871 63.8399 26.5174 63.8399 21.9347C63.8399 17.3519 64.6138 14.0135 66.1616 11.9194C67.7094 9.82533 70.3043 8.68724 73.9462 8.50514V15.1516C73.3695 15.5158 72.9446 16.2442 72.6715 17.3368C72.4287 18.4293 72.3073 19.9771 72.3073 21.9802C72.3073 25.8345 72.8536 28.0956 73.9462 28.7632ZM100.395 35.4097V28.7177C101.488 27.9893 102.034 25.7435 102.034 21.9802C102.034 18.1258 101.488 15.8648 100.395 15.1971V8.50514C104.037 8.65689 106.632 9.79498 108.18 11.9194C109.728 14.0135 110.501 17.3519 110.501 21.9347C110.501 26.5174 109.728 29.871 108.18 31.9954C106.632 34.0895 104.037 35.2276 100.395 35.4097ZM98.119 28.7632V35.4097C94.4771 35.2276 91.8822 34.0895 90.3344 31.9954C88.7866 29.871 88.0127 26.5174 88.0127 21.9347C88.0127 17.3519 88.7866 14.0135 90.3344 11.9194C91.8822 9.82533 94.4771 8.68724 98.119 8.50514V15.1516C97.5423 15.5158 97.1174 16.2442 96.8443 17.3368C96.6015 18.4293 96.4801 19.9771 96.4801 21.9802C96.4801 25.8345 97.0264 28.0956 98.119 28.7632ZM121.29 12.2381L113.096 29.0364V1.72209L121.29 0.62952V12.2381ZM121.336 35H112.641L125.433 8.82381H134.173L121.336 35ZM124.841 33.0425L129.621 23.1638L134.173 35H125.478L124.841 33.0425ZM145.221 17.883L141.078 24.4385L139.348 23.3004C137.922 22.3596 136.89 21.3429 136.253 20.2503C135.615 19.1577 135.297 17.7313 135.297 15.971C135.297 13.4521 136.04 11.5856 137.527 10.3716C139.014 9.1273 141.458 8.48997 144.857 8.45962C146.131 8.45962 147.3 8.52032 148.362 8.64171C149.455 8.73276 150.319 8.83898 150.957 8.96038C151.624 9.08178 151.958 9.14247 151.958 9.14247L151.275 15.1971C151.275 15.1971 151.048 15.1668 150.593 15.1061C150.137 15.0454 149.546 14.9847 148.817 14.924C148.119 14.833 147.391 14.7874 146.632 14.7874C145.539 14.7874 144.75 14.8785 144.265 15.0606C143.779 15.2427 143.536 15.5917 143.536 16.1076C143.536 16.4111 143.627 16.6691 143.81 16.8815C143.992 17.0636 144.28 17.2761 144.675 17.5189L145.221 17.883ZM142.99 25.6676L147.178 19.1577L148.681 20.1137C150.137 21.0545 151.184 22.0712 151.822 23.1638C152.459 24.226 152.778 25.6069 152.778 27.3065C152.778 30.0076 152.004 32.041 150.456 33.4067C148.908 34.742 146.374 35.4249 142.854 35.4552C141.306 35.4552 139.879 35.3642 138.574 35.1821C137.3 35.0303 136.131 34.8179 135.069 34.5448L135.752 28.3535C135.752 28.3535 136.313 28.4446 137.436 28.6267C138.559 28.7784 140.046 28.8543 141.898 28.8543C143.567 28.8543 144.401 28.3535 144.401 27.352C144.401 26.8361 144.022 26.3353 143.263 25.8497L142.99 25.6676Z"/>
</mask>
<path d="M3.23844 9.50667L0.324921 2.22285H22.1308L20.7651 9.50667H3.23844ZM2.82873 11.7829H11.7059V14.5143H20.2188L18.8531 21.7981H11.7059V27.7162H22.4495L21.0838 35H2.82873V11.7829ZM35.2776 16.4263V22.7541H24.3519V16.4263H35.2776ZM47.8703 19.9771V28.9909H48.3255C49.843 28.9909 50.9507 28.7177 51.6488 28.1714C52.3771 27.5948 52.7413 26.5933 52.7413 25.1669C52.7413 23.8618 52.3923 22.8451 51.6943 22.1168C53.0903 21.8133 54.365 21.4187 55.5183 20.9331C56.6715 20.4476 57.6427 19.8102 58.4318 19.0211C59.7065 19.7799 60.6169 20.751 61.1632 21.9347C61.7095 23.0879 61.9827 24.5143 61.9827 26.2139C61.9827 29.0364 60.9508 31.2063 58.887 32.7238C56.8233 34.2413 53.6821 35 49.4636 35H38.9931V10.7358H47.8703V15.6979H48.28C49.6457 15.6979 50.6321 15.4399 51.239 14.924C51.8764 14.3777 52.195 13.4369 52.195 12.1015C52.195 10.7358 51.8764 9.79498 51.239 9.27905C50.6321 8.73276 49.6457 8.45962 48.28 8.45962H38.9931L36.4893 2.22285H50.1465C53.8187 2.22285 56.4895 2.98158 58.1587 4.49905C59.8279 6.01651 60.6625 8.14095 60.6625 10.8724C60.6625 12.6023 60.2679 14.059 59.4788 15.2427C58.7201 16.3959 57.7034 17.3216 56.4288 18.0196C55.1541 18.7176 53.7732 19.2184 52.2861 19.5219C50.799 19.8254 49.327 19.9771 47.8703 19.9771ZM76.2224 35.4097V28.7177C77.3149 27.9893 77.8612 25.7435 77.8612 21.9802C77.8612 18.1258 77.3149 15.8648 76.2224 15.1971V8.50514C79.8643 8.65689 82.4591 9.79498 84.0069 11.9194C85.5547 14.0135 86.3286 17.3519 86.3286 21.9347C86.3286 26.5174 85.5547 29.871 84.0069 31.9954C82.4591 34.0895 79.8643 35.2276 76.2224 35.4097ZM73.9462 28.7632V35.4097C70.3043 35.2276 67.7094 34.0895 66.1616 31.9954C64.6138 29.871 63.8399 26.5174 63.8399 21.9347C63.8399 17.3519 64.6138 14.0135 66.1616 11.9194C67.7094 9.82533 70.3043 8.68724 73.9462 8.50514V15.1516C73.3695 15.5158 72.9446 16.2442 72.6715 17.3368C72.4287 18.4293 72.3073 19.9771 72.3073 21.9802C72.3073 25.8345 72.8536 28.0956 73.9462 28.7632ZM100.395 35.4097V28.7177C101.488 27.9893 102.034 25.7435 102.034 21.9802C102.034 18.1258 101.488 15.8648 100.395 15.1971V8.50514C104.037 8.65689 106.632 9.79498 108.18 11.9194C109.728 14.0135 110.501 17.3519 110.501 21.9347C110.501 26.5174 109.728 29.871 108.18 31.9954C106.632 34.0895 104.037 35.2276 100.395 35.4097ZM98.119 28.7632V35.4097C94.4771 35.2276 91.8822 34.0895 90.3344 31.9954C88.7866 29.871 88.0127 26.5174 88.0127 21.9347C88.0127 17.3519 88.7866 14.0135 90.3344 11.9194C91.8822 9.82533 94.4771 8.68724 98.119 8.50514V15.1516C97.5423 15.5158 97.1174 16.2442 96.8443 17.3368C96.6015 18.4293 96.4801 19.9771 96.4801 21.9802C96.4801 25.8345 97.0264 28.0956 98.119 28.7632ZM121.29 12.2381L113.096 29.0364V1.72209L121.29 0.62952V12.2381ZM121.336 35H112.641L125.433 8.82381H134.173L121.336 35ZM124.841 33.0425L129.621 23.1638L134.173 35H125.478L124.841 33.0425ZM145.221 17.883L141.078 24.4385L139.348 23.3004C137.922 22.3596 136.89 21.3429 136.253 20.2503C135.615 19.1577 135.297 17.7313 135.297 15.971C135.297 13.4521 136.04 11.5856 137.527 10.3716C139.014 9.1273 141.458 8.48997 144.857 8.45962C146.131 8.45962 147.3 8.52032 148.362 8.64171C149.455 8.73276 150.319 8.83898 150.957 8.96038C151.624 9.08178 151.958 9.14247 151.958 9.14247L151.275 15.1971C151.275 15.1971 151.048 15.1668 150.593 15.1061C150.137 15.0454 149.546 14.9847 148.817 14.924C148.119 14.833 147.391 14.7874 146.632 14.7874C145.539 14.7874 144.75 14.8785 144.265 15.0606C143.779 15.2427 143.536 15.5917 143.536 16.1076C143.536 16.4111 143.627 16.6691 143.81 16.8815C143.992 17.0636 144.28 17.2761 144.675 17.5189L145.221 17.883ZM142.99 25.6676L147.178 19.1577L148.681 20.1137C150.137 21.0545 151.184 22.0712 151.822 23.1638C152.459 24.226 152.778 25.6069 152.778 27.3065C152.778 30.0076 152.004 32.041 150.456 33.4067C148.908 34.742 146.374 35.4249 142.854 35.4552C141.306 35.4552 139.879 35.3642 138.574 35.1821C137.3 35.0303 136.131 34.8179 135.069 34.5448L135.752 28.3535C135.752 28.3535 136.313 28.4446 137.436 28.6267C138.559 28.7784 140.046 28.8543 141.898 28.8543C143.567 28.8543 144.401 28.3535 144.401 27.352C144.401 26.8361 144.022 26.3353 143.263 25.8497L142.99 25.6676Z" fill="#EEEEEE"/>
<path d="M3.23844 9.50667L1.84573 10.0638L2.2229 11.0067H3.23844V9.50667ZM0.324921 2.22285V0.722855H-1.89063L-1.06779 2.77994L0.324921 2.22285ZM22.1308 2.22285L23.6051 2.49929L23.9382 0.722855H22.1308V2.22285ZM20.7651 9.50667V11.0067H22.01L22.2394 9.7831L20.7651 9.50667ZM2.82873 11.7829V10.2829H1.32873V11.7829H2.82873ZM11.7059 11.7829H13.2059V10.2829H11.7059V11.7829ZM11.7059 14.5143H10.2059V16.0143H11.7059V14.5143ZM20.2188 14.5143L21.6931 14.7907L22.0262 13.0143H20.2188V14.5143ZM18.8531 21.7981V23.2981H20.098L20.3274 22.0745L18.8531 21.7981ZM11.7059 21.7981V20.2981H10.2059V21.7981H11.7059ZM11.7059 27.7162H10.2059V29.2162H11.7059V27.7162ZM22.4495 27.7162L23.9238 27.9926L24.2569 26.2162H22.4495V27.7162ZM21.0838 35V36.5H22.3287L22.5581 35.2764L21.0838 35ZM2.82873 35H1.32873V36.5H2.82873V35ZM4.63116 8.94958L1.71764 1.66577L-1.06779 2.77994L1.84573 10.0638L4.63116 8.94958ZM0.324921 3.72285H22.1308V0.722855H0.324921V3.72285ZM20.6565 1.94642L19.2908 9.23023L22.2394 9.7831L23.6051 2.49929L20.6565 1.94642ZM20.7651 8.00667H3.23844V11.0067H20.7651V8.00667ZM2.82873 13.2829H11.7059V10.2829H2.82873V13.2829ZM10.2059 11.7829V14.5143H13.2059V11.7829H10.2059ZM11.7059 16.0143H20.2188V13.0143H11.7059V16.0143ZM18.7445 14.2379L17.3788 21.5217L20.3274 22.0745L21.6931 14.7907L18.7445 14.2379ZM18.8531 20.2981H11.7059V23.2981H18.8531V20.2981ZM10.2059 21.7981V27.7162H13.2059V21.7981H10.2059ZM11.7059 29.2162H22.4495V26.2162H11.7059V29.2162ZM20.9752 27.4398L19.6095 34.7236L22.5581 35.2764L23.9238 27.9926L20.9752 27.4398ZM21.0838 33.5H2.82873V36.5H21.0838V33.5ZM4.32873 35V11.7829H1.32873V35H4.32873ZM35.2776 16.4263H36.7776V14.9263H35.2776V16.4263ZM35.2776 22.7541V24.2541H36.7776V22.7541H35.2776ZM24.3519 22.7541H22.8519V24.2541H24.3519V22.7541ZM24.3519 16.4263V14.9263H22.8519V16.4263H24.3519ZM33.7776 16.4263V22.7541H36.7776V16.4263H33.7776ZM35.2776 21.2541H24.3519V24.2541H35.2776V21.2541ZM25.8519 22.7541V16.4263H22.8519V22.7541H25.8519ZM24.3519 17.9263H35.2776V14.9263H24.3519V17.9263ZM47.8703 19.9771V18.4771H46.3703V19.9771H47.8703ZM47.8703 28.9909H46.3703V30.4909H47.8703V28.9909ZM51.6488 28.1714L52.5732 29.3527L52.5798 29.3475L51.6488 28.1714ZM51.6943 22.1168L51.3756 20.651L48.7574 21.2202L50.6113 23.1546L51.6943 22.1168ZM55.5183 20.9331L54.9362 19.5507L55.5183 20.9331ZM58.4318 19.0211L59.199 17.7322L58.1963 17.1353L57.3711 17.9605L58.4318 19.0211ZM61.1632 21.9347L59.8013 22.5633L59.8044 22.57L59.8076 22.5768L61.1632 21.9347ZM38.9931 35H37.4931V36.5H38.9931V35ZM38.9931 10.7358V9.23581H37.4931V10.7358H38.9931ZM47.8703 10.7358H49.3703V9.23581H47.8703V10.7358ZM47.8703 15.6979H46.3703V17.1979H47.8703V15.6979ZM51.239 14.924L52.2105 16.0669L52.2152 16.0629L51.239 14.924ZM51.239 9.27905L50.2356 10.394L50.2648 10.4202L50.2952 10.4449L51.239 9.27905ZM38.9931 8.45962L37.6011 9.01846L37.979 9.95962H38.9931V8.45962ZM36.4893 2.22285V0.722855H34.2708L35.0973 2.78169L36.4893 2.22285ZM58.1587 4.49905L57.1496 5.60896V5.60896L58.1587 4.49905ZM59.4788 15.2427L58.2307 14.4106L58.2257 14.4182L59.4788 15.2427ZM52.2861 19.5219L52.586 20.9916L52.2861 19.5219ZM46.3703 19.9771V28.9909H49.3703V19.9771H46.3703ZM47.8703 30.4909H48.3255V27.4909H47.8703V30.4909ZM48.3255 30.4909C49.9624 30.4909 51.4808 30.2076 52.5732 29.3527L50.7243 26.9902C50.4207 27.2278 49.7236 27.4909 48.3255 27.4909V30.4909ZM52.5798 29.3475C53.826 28.361 54.2413 26.802 54.2413 25.1669H51.2413C51.2413 26.3845 50.9283 26.8286 50.7177 26.9954L52.5798 29.3475ZM54.2413 25.1669C54.2413 23.5928 53.8146 22.1613 52.7773 21.0789L50.6113 23.1546C50.97 23.5289 51.2413 24.1308 51.2413 25.1669H54.2413ZM52.0129 23.5825C53.4868 23.2621 54.8511 22.8416 56.1004 22.3156L54.9362 19.5507C53.8789 19.9958 52.6939 20.3644 51.3756 20.651L52.0129 23.5825ZM56.1004 22.3156C57.4108 21.7638 58.5505 21.0238 59.4925 20.0818L57.3711 17.9605C56.735 18.5967 55.9323 19.1313 54.9362 19.5507L56.1004 22.3156ZM57.6646 20.3101C58.716 20.9359 59.399 21.6916 59.8013 22.5633L62.5252 21.3061C61.8349 19.8105 60.6969 18.6238 59.199 17.7322L57.6646 20.3101ZM59.8076 22.5768C60.2328 23.4743 60.4827 24.6662 60.4827 26.2139H63.4827C63.4827 24.3625 63.1863 22.7016 62.5188 21.2925L59.8076 22.5768ZM60.4827 26.2139C60.4827 28.6155 59.6346 30.3123 57.9985 31.5153L59.7756 33.9323C62.267 32.1004 63.4827 29.4573 63.4827 26.2139H60.4827ZM57.9985 31.5153C56.3113 32.7559 53.5512 33.5 49.4636 33.5V36.5C53.8131 36.5 57.3353 35.7266 59.7756 33.9323L57.9985 31.5153ZM49.4636 33.5H38.9931V36.5H49.4636V33.5ZM40.4931 35V10.7358H37.4931V35H40.4931ZM38.9931 12.2358H47.8703V9.23581H38.9931V12.2358ZM46.3703 10.7358V15.6979H49.3703V10.7358H46.3703ZM47.8703 17.1979H48.28V14.1979H47.8703V17.1979ZM48.28 17.1979C49.7695 17.1979 51.1965 16.9288 52.2105 16.0669L50.2676 13.7811C50.0676 13.9511 49.5219 14.1979 48.28 14.1979V17.1979ZM52.2152 16.0629C53.3396 15.0992 53.695 13.619 53.695 12.1015H50.695C50.695 13.2547 50.4132 13.6563 50.2629 13.7851L52.2152 16.0629ZM53.695 12.1015C53.695 10.5779 53.3503 9.05831 52.1828 8.11318L50.2952 10.4449C50.4024 10.5317 50.695 10.8937 50.695 12.1015H53.695ZM52.2425 8.16411C51.2262 7.24949 49.7845 6.95962 48.28 6.95962V9.95962C49.5069 9.95962 50.0379 10.216 50.2356 10.394L52.2425 8.16411ZM48.28 6.95962H38.9931V9.95962H48.28V6.95962ZM40.3851 7.90078L37.8813 1.66402L35.0973 2.78169L37.6011 9.01846L40.3851 7.90078ZM36.4893 3.72285H50.1465V0.722855H36.4893V3.72285ZM50.1465 3.72285C53.6663 3.72285 55.8851 4.45936 57.1496 5.60896L59.1677 3.38914C57.0938 1.50381 53.9711 0.722855 50.1465 0.722855V3.72285ZM57.1496 5.60896C58.4412 6.78309 59.1625 8.46701 59.1625 10.8724H62.1625C62.1625 7.81489 61.2145 5.24992 59.1677 3.38914L57.1496 5.60896ZM59.1625 10.8724C59.1625 12.3708 58.823 13.5222 58.2308 14.4106L60.7269 16.0747C61.7128 14.5959 62.1625 12.8338 62.1625 10.8724H59.1625ZM58.2257 14.4182C57.6089 15.3558 56.7796 16.1173 55.7083 16.704L57.1492 19.3353C58.6272 18.5259 59.8314 17.436 60.732 16.0671L58.2257 14.4182ZM55.7083 16.704C54.571 17.3267 53.3327 17.7774 51.9861 18.0522L52.586 20.9916C54.2137 20.6594 55.7371 20.1086 57.1492 19.3353L55.7083 16.704ZM51.9861 18.0522C50.5936 18.3364 49.2222 18.4771 47.8703 18.4771V21.4771C49.4319 21.4771 51.0043 21.3144 52.586 20.9916L51.9861 18.0522ZM76.2224 35.4097H74.7224V36.9866L76.2973 36.9078L76.2224 35.4097ZM76.2224 28.7177L75.3903 27.4696L74.7224 27.9149V28.7177H76.2224ZM76.2224 15.1971H74.7224V16.0384L75.4402 16.4771L76.2224 15.1971ZM76.2224 8.50514L76.2848 7.00644L74.7224 6.94134V8.50514H76.2224ZM84.0069 11.9194L82.7945 12.8027L82.8007 12.811L84.0069 11.9194ZM84.0069 31.9954L85.2132 32.887L85.2193 32.8787L84.0069 31.9954ZM73.9462 28.7632H75.4462V27.922L74.7283 27.4833L73.9462 28.7632ZM73.9462 35.4097L73.8713 36.9078L75.4462 36.9866V35.4097H73.9462ZM66.1616 31.9954L64.9492 32.8787L64.9553 32.887L66.1616 31.9954ZM66.1616 11.9194L64.9553 11.0278L66.1616 11.9194ZM73.9462 8.50514H75.4462V6.92827L73.8713 7.00701L73.9462 8.50514ZM73.9462 15.1516L74.7472 16.4199L75.4462 15.9784V15.1516H73.9462ZM72.6715 17.3368L71.2163 16.973L71.2115 16.9921L71.2072 17.0114L72.6715 17.3368ZM77.7224 35.4097V28.7177H74.7224V35.4097H77.7224ZM77.0544 29.9658C78.0786 29.283 78.6086 28.0767 78.909 26.8416C79.2224 25.5532 79.3612 23.9167 79.3612 21.9802H76.3612C76.3612 23.807 76.2269 25.175 75.994 26.1325C75.7482 27.1432 75.4587 27.4241 75.3903 27.4696L77.0544 29.9658ZM79.3612 21.9802C79.3612 20.001 79.2228 18.3378 78.9096 17.0414C78.6124 15.8113 78.0786 14.5736 77.0045 13.9172L75.4402 16.4771C75.4358 16.4744 75.5134 16.52 75.6304 16.7291C75.7483 16.9399 75.8776 17.2665 75.9935 17.7459C76.2265 18.7106 76.3612 20.1051 76.3612 21.9802H79.3612ZM77.7224 15.1971V8.50514H74.7224V15.1971H77.7224ZM76.1599 10.0038C79.5318 10.1443 81.6099 11.1767 82.7946 12.8027L85.2193 11.0361C83.3083 8.41327 80.1968 7.16944 76.2848 7.00644L76.1599 10.0038ZM82.8007 12.811C84.0602 14.515 84.8287 17.4565 84.8287 21.9347H87.8287C87.8287 17.2473 87.0493 13.512 85.2132 11.0278L82.8007 12.811ZM84.8287 21.9347C84.8287 26.4099 84.0613 29.3735 82.7946 31.1121L85.2193 32.8787C87.0482 30.3685 87.8287 26.6249 87.8287 21.9347H84.8287ZM82.8007 31.1038C81.615 32.708 79.5288 33.7425 76.1475 33.9116L76.2973 36.9078C80.1997 36.7127 83.3033 35.471 85.2132 32.887L82.8007 31.1038ZM72.4462 28.7632V35.4097H75.4462V28.7632H72.4462ZM74.0211 33.9116C70.6397 33.7425 68.5536 32.708 67.3679 31.1038L64.9553 32.887C66.8652 35.471 69.9688 36.7127 73.8713 36.9078L74.0211 33.9116ZM67.374 31.1121C66.1072 29.3735 65.3399 26.4099 65.3399 21.9347H62.3399C62.3399 26.6249 63.1203 30.3685 64.9492 32.8787L67.374 31.1121ZM65.3399 21.9347C65.3399 17.4565 66.1084 14.515 67.3679 12.811L64.9553 11.0278C63.1192 13.512 62.3399 17.2473 62.3399 21.9347H65.3399ZM67.3679 12.811C68.5536 11.2068 70.6397 10.1723 74.0211 10.0033L73.8713 7.00701C69.9688 7.20213 66.8652 8.44385 64.9553 11.0278L67.3679 12.811ZM72.4462 8.50514V15.1516H75.4462V8.50514H72.4462ZM73.1452 13.8834C72.0856 14.5526 71.5256 15.7359 71.2163 16.973L74.1267 17.7006C74.3637 16.7525 74.6535 16.479 74.7472 16.4199L73.1452 13.8834ZM71.2072 17.0114C70.9291 18.2631 70.8073 19.939 70.8073 21.9802H73.8073C73.8073 20.0153 73.9284 18.5955 74.1358 17.6622L71.2072 17.0114ZM70.8073 21.9802C70.8073 23.9594 70.9458 25.6226 71.259 26.919C71.5562 28.149 72.09 29.3868 73.164 30.0432L74.7283 27.4833C74.7327 27.486 74.6552 27.4404 74.5382 27.2312C74.4202 27.0205 74.2909 26.6939 74.1751 26.2144C73.942 25.2498 73.8073 23.8553 73.8073 21.9802H70.8073ZM100.395 35.4097H98.8951V36.9866L100.47 36.9078L100.395 35.4097ZM100.395 28.7177L99.5631 27.4696L98.8951 27.9149V28.7177H100.395ZM100.395 15.1971H98.8951V16.0384L99.613 16.4771L100.395 15.1971ZM100.395 8.50514L100.458 7.00644L98.8951 6.94134V8.50514H100.395ZM108.18 11.9194L106.967 12.8027L106.973 12.811L108.18 11.9194ZM108.18 31.9954L109.386 32.887L109.392 32.8787L108.18 31.9954ZM98.119 28.7632H99.619V27.922L98.9011 27.4833L98.119 28.7632ZM98.119 35.4097L98.0441 36.9078L99.619 36.9866V35.4097H98.119ZM90.3344 31.9954L89.122 32.8787L89.1281 32.887L90.3344 31.9954ZM90.3344 11.9194L89.1281 11.0278L90.3344 11.9194ZM98.119 8.50514H99.619V6.92827L98.0441 7.00701L98.119 8.50514ZM98.119 15.1516L98.9199 16.4199L99.619 15.9784V15.1516H98.119ZM96.8443 17.3368L95.3891 16.973L95.3843 16.9921L95.38 17.0114L96.8443 17.3368ZM101.895 35.4097V28.7177H98.8951V35.4097H101.895ZM101.227 29.9658C102.251 29.283 102.781 28.0767 103.082 26.8416C103.395 25.5532 103.534 23.9167 103.534 21.9802H100.534C100.534 23.807 100.4 25.175 100.167 26.1325C99.9209 27.1432 99.6315 27.4241 99.5631 27.4696L101.227 29.9658ZM103.534 21.9802C103.534 20.001 103.396 18.3378 103.082 17.0414C102.785 15.8113 102.251 14.5736 101.177 13.9172L99.613 16.4771C99.6086 16.4744 99.6861 16.52 99.8032 16.7291C99.9211 16.9399 100.05 17.2665 100.166 17.7459C100.399 18.7106 100.534 20.1051 100.534 21.9802H103.534ZM101.895 15.1971V8.50514H98.8951V15.1971H101.895ZM100.333 10.0038C103.705 10.1443 105.783 11.1767 106.967 12.8027L109.392 11.0361C107.481 8.41327 104.37 7.16944 100.458 7.00644L100.333 10.0038ZM106.973 12.811C108.233 14.515 109.001 17.4565 109.001 21.9347H112.001C112.001 17.2473 111.222 13.512 109.386 11.0278L106.973 12.811ZM109.001 21.9347C109.001 26.4099 108.234 29.3735 106.967 31.1121L109.392 32.8787C111.221 30.3685 112.001 26.6249 112.001 21.9347H109.001ZM106.973 31.1038C105.788 32.708 103.702 33.7425 100.32 33.9116L100.47 36.9078C104.372 36.7127 107.476 35.471 109.386 32.887L106.973 31.1038ZM96.619 28.7632V35.4097H99.619V28.7632H96.619ZM98.1939 33.9116C94.8125 33.7425 92.7264 32.708 91.5406 31.1038L89.1281 32.887C91.038 35.471 94.1416 36.7127 98.0441 36.9078L98.1939 33.9116ZM91.5467 31.1121C90.28 29.3735 89.5127 26.4099 89.5127 21.9347H86.5127C86.5127 26.6249 87.2931 30.3685 89.122 32.8787L91.5467 31.1121ZM89.5127 21.9347C89.5127 17.4565 90.2812 14.515 91.5406 12.811L89.1281 11.0278C87.292 13.512 86.5127 17.2473 86.5127 21.9347H89.5127ZM91.5406 12.811C92.7264 11.2068 94.8125 10.1723 98.1939 10.0033L98.0441 7.00701C94.1416 7.20213 91.038 8.44385 89.1281 11.0278L91.5406 12.811ZM96.619 8.50514V15.1516H99.619V8.50514H96.619ZM97.318 13.8834C96.2584 14.5526 95.6983 15.7359 95.3891 16.973L98.2995 17.7006C98.5365 16.7525 98.8263 16.479 98.9199 16.4199L97.318 13.8834ZM95.38 17.0114C95.1018 18.2631 94.9801 19.939 94.9801 21.9802H97.9801C97.9801 20.0153 98.1012 18.5955 98.3086 17.6622L95.38 17.0114ZM94.9801 21.9802C94.9801 23.9594 95.1186 25.6226 95.4318 26.919C95.729 28.149 96.2628 29.3868 97.3368 30.0432L98.9011 27.4833C98.9055 27.486 98.828 27.4404 98.711 27.2312C98.593 27.0205 98.4637 26.6939 98.3479 26.2144C98.1148 25.2498 97.9801 23.8553 97.9801 21.9802H94.9801ZM121.29 12.2381L122.638 12.8957L122.79 12.5844V12.2381H121.29ZM113.096 29.0364H111.596L114.444 29.694L113.096 29.0364ZM113.096 1.72209L112.898 0.235252L111.596 0.408819V1.72209H113.096ZM121.29 0.62952H122.79V-1.08376L121.092 -0.857322L121.29 0.62952ZM121.336 35V36.5H122.271L122.683 35.6605L121.336 35ZM112.641 35L111.293 34.3414L110.238 36.5H112.641V35ZM125.433 8.82381V7.32381H124.496L124.085 8.1652L125.433 8.82381ZM134.173 8.82381L135.52 9.4843L136.58 7.32381H134.173V8.82381ZM124.841 33.0425L123.491 32.3891L123.228 32.9327L123.415 33.5069L124.841 33.0425ZM129.621 23.1638L131.021 22.6253L129.779 19.3946L128.271 22.5105L129.621 23.1638ZM134.173 35V36.5H136.358L135.573 34.4615L134.173 35ZM125.478 35L124.052 35.4644L124.389 36.5H125.478V35ZM119.942 11.5805L111.748 28.3787L114.444 29.694L122.638 12.8957L119.942 11.5805ZM114.596 29.0364V1.72209H111.596V29.0364H114.596ZM113.294 3.20894L121.488 2.11636L121.092 -0.857322L112.898 0.235252L113.294 3.20894ZM119.79 0.62952V12.2381H122.79V0.62952H119.79ZM121.336 33.5H112.641V36.5H121.336V33.5ZM113.988 35.6586L126.781 9.48241L124.085 8.1652L111.293 34.3414L113.988 35.6586ZM125.433 10.3238H134.173V7.32381H125.433V10.3238ZM132.827 8.16331L119.989 34.3395L122.683 35.6605L135.52 9.4843L132.827 8.16331ZM126.191 33.6958L130.971 23.8172L128.271 22.5105L123.491 32.3891L126.191 33.6958ZM128.221 23.7023L132.773 35.5385L135.573 34.4615L131.021 22.6253L128.221 23.7023ZM134.173 33.5H125.478V36.5H134.173V33.5ZM126.905 34.5356L126.267 32.5781L123.415 33.5069L124.052 35.4644L126.905 34.5356ZM145.221 17.883L146.489 18.6844L147.271 17.4469L146.053 16.635L145.221 17.883ZM141.078 24.4385L140.254 25.6916L141.53 26.5313L142.346 25.2398L141.078 24.4385ZM139.348 23.3004L138.522 24.5525L138.524 24.5535L139.348 23.3004ZM136.253 20.2503L134.957 21.0061L136.253 20.2503ZM137.527 10.3716L138.476 11.5336L138.483 11.5279L138.49 11.522L137.527 10.3716ZM144.857 8.45962V6.95956L144.843 6.95968L144.857 8.45962ZM148.362 8.64171L148.192 10.132L148.214 10.1346L148.237 10.1365L148.362 8.64171ZM150.957 8.96038L150.676 10.4339L150.688 10.4362L150.957 8.96038ZM151.958 9.14247L153.449 9.31058L153.606 7.91746L152.227 7.66667L151.958 9.14247ZM151.275 15.1971L151.077 16.684L152.594 16.8863L152.766 15.3652L151.275 15.1971ZM150.593 15.1061L150.394 16.5929V16.5929L150.593 15.1061ZM148.817 14.924L148.623 16.4114L148.658 16.4159L148.693 16.4188L148.817 14.924ZM144.265 15.0606L144.792 16.4651L144.265 15.0606ZM143.81 16.8815L142.671 17.8577L142.708 17.9014L142.749 17.9422L143.81 16.8815ZM144.675 17.5189L145.507 16.2708L145.484 16.2557L145.461 16.2414L144.675 17.5189ZM142.99 25.6676L141.729 24.856L140.93 26.0971L142.158 26.9157L142.99 25.6676ZM147.178 19.1577L147.984 17.8922L146.724 17.0909L145.917 18.3461L147.178 19.1577ZM148.681 20.1137L149.494 18.8536L149.486 18.8482L148.681 20.1137ZM151.822 23.1638L150.526 23.9196L150.531 23.9276L150.536 23.9356L151.822 23.1638ZM150.456 33.4067L151.436 34.5424L151.442 34.5369L151.448 34.5314L150.456 33.4067ZM142.854 35.4552V36.9553L142.867 36.9552L142.854 35.4552ZM138.574 35.1821L138.782 33.6965L138.767 33.6944L138.752 33.6926L138.574 35.1821ZM135.069 34.5448L133.578 34.3803L133.435 35.6735L134.695 35.9975L135.069 34.5448ZM135.752 28.3535L135.992 26.8729L134.434 26.6202L134.261 28.1891L135.752 28.3535ZM137.436 28.6267L137.196 30.1073L137.216 30.1105L137.235 30.1132L137.436 28.6267ZM143.263 25.8497L142.431 27.0978L142.443 27.1056L142.455 27.1131L143.263 25.8497ZM143.953 17.0817L139.81 23.6372L142.346 25.2398L146.489 18.6844L143.953 17.0817ZM141.903 23.1854L140.173 22.0473L138.524 24.5535L140.254 25.6916L141.903 23.1854ZM140.174 22.0482C138.876 21.1921 138.036 20.3304 137.548 19.4945L134.957 21.0061C135.744 22.3554 136.968 23.527 138.522 24.5525L140.174 22.0482ZM137.548 19.4945C137.087 18.704 136.797 17.5648 136.797 15.971H133.797C133.797 17.8978 134.143 19.6114 134.957 21.0061L137.548 19.4945ZM136.797 15.971C136.797 13.7514 137.44 12.3792 138.476 11.5336L136.579 9.20963C134.64 10.7919 133.797 13.1527 133.797 15.971H136.797ZM138.49 11.522C139.573 10.6154 141.583 9.98891 144.87 9.95956L144.843 6.95968C141.332 6.99103 138.455 7.63922 136.565 9.22121L138.49 11.522ZM144.857 9.95962C146.085 9.95962 147.195 10.0182 148.192 10.132L148.532 7.15141C147.404 7.02247 146.178 6.95962 144.857 6.95962V9.95962ZM148.237 10.1365C149.308 10.2257 150.114 10.3267 150.676 10.4339L151.237 7.48687C150.525 7.35123 149.601 7.23977 148.487 7.14689L148.237 10.1365ZM150.688 10.4362C150.778 10.4524 150.723 10.4425 150.81 10.4582C150.937 10.4813 150.799 10.4562 150.923 10.4789C150.98 10.4893 150.974 10.4881 151.029 10.4981C151.093 10.5098 150.99 10.4909 151.054 10.5026C151.101 10.5112 151.032 10.4986 151.079 10.5071C151.09 10.5093 151.079 10.5072 151.091 10.5093C151.101 10.5111 151.093 10.5098 151.103 10.5115C151.108 10.5125 151.104 10.5117 151.109 10.5126C151.115 10.5137 151.109 10.5127 151.115 10.5137C151.125 10.5155 151.117 10.5141 151.127 10.5159C151.32 10.551 151.288 10.5452 151.44 10.5728C151.498 10.5833 151.611 10.6039 151.627 10.6069C151.65 10.6109 151.663 10.6133 151.674 10.6154C151.685 10.6174 151.678 10.616 151.686 10.6176C151.687 10.6177 151.689 10.6181 151.689 10.6181C151.689 10.6182 151.69 10.6182 151.69 10.6182C151.69 10.6182 151.69 10.6182 151.69 10.6183C151.69 10.6183 151.69 10.6183 151.69 10.6183C151.69 10.6183 151.69 10.6183 151.69 10.6183C151.69 10.6183 151.69 10.6183 151.69 10.6183C151.69 10.6183 151.69 10.6183 151.69 10.6183C151.69 10.6183 151.69 10.6183 151.958 9.14247C152.227 7.66667 152.227 7.66667 152.227 7.66667C152.227 7.66667 152.227 7.66667 152.227 7.66667C152.227 7.66667 152.227 7.66666 152.227 7.66666C152.227 7.66666 152.227 7.66666 152.227 7.66666C152.227 7.66666 152.227 7.66665 152.227 7.66665C152.227 7.66665 152.227 7.66665 152.227 7.66664C152.227 7.66664 152.227 7.66664 152.226 7.66664C152.226 7.66663 152.226 7.66663 152.226 7.66663C152.226 7.66661 152.226 7.66659 152.226 7.66657C152.226 7.66654 152.226 7.66653 152.226 7.66649C152.22 7.66554 152.229 7.66703 152.223 7.66596C152.218 7.66509 152.223 7.66605 152.218 7.66507C152.218 7.66503 152.215 7.66456 152.215 7.66449C152.212 7.66393 152.216 7.66474 152.213 7.66417C152.213 7.66414 152.213 7.66411 152.212 7.66408C152.212 7.66406 152.212 7.66403 152.212 7.664C152.211 7.66383 152.212 7.664 152.211 7.66382C152.164 7.65526 152.222 7.66575 152.164 7.65529C152.141 7.65115 152.119 7.6471 152.086 7.64106C152.014 7.62795 152.11 7.6454 152.035 7.63182C152.023 7.6297 152.033 7.63143 152.021 7.62928C151.995 7.62455 152.033 7.63142 152.007 7.62666C151.98 7.62184 152.003 7.62609 151.976 7.62115C151.748 7.57965 151.62 7.55642 151.225 7.48457L150.688 10.4362ZM150.468 8.97437L149.785 15.029L152.766 15.3652L153.449 9.31058L150.468 8.97437ZM151.275 15.1971C151.474 13.7103 151.474 13.7103 151.474 13.7103C151.474 13.7103 151.474 13.7103 151.474 13.7103C151.474 13.7103 151.474 13.7103 151.474 13.7103C151.474 13.7103 151.474 13.7103 151.474 13.7103C151.474 13.7103 151.474 13.7103 151.474 13.7103C151.474 13.7103 151.474 13.7103 151.474 13.7103C151.473 13.7102 151.473 13.7102 151.473 13.7102C151.473 13.7102 151.473 13.7102 151.473 13.7102C151.473 13.7102 151.473 13.7102 151.473 13.7102C151.473 13.7101 151.472 13.7101 151.472 13.7101C151.469 13.7097 151.474 13.7104 151.471 13.7099C151.47 13.7099 151.471 13.7099 151.47 13.7098C151.47 13.7098 151.47 13.7099 151.47 13.7098C151.47 13.7098 151.47 13.7098 151.47 13.7098C151.47 13.7098 151.47 13.7098 151.47 13.7097C151.467 13.7094 151.47 13.7098 151.468 13.7095C151.467 13.7094 151.466 13.7093 151.466 13.7092C151.463 13.7089 151.466 13.7092 151.463 13.7089C151.461 13.7086 151.464 13.709 151.462 13.7087C151.447 13.7068 151.475 13.7104 151.46 13.7085C151.46 13.7085 151.46 13.7085 151.46 13.7084C151.46 13.7084 151.46 13.7084 151.459 13.7084C151.459 13.7084 151.459 13.7084 151.459 13.7083C151.459 13.7083 151.459 13.7083 151.459 13.7083C151.454 13.7077 151.461 13.7086 151.457 13.7081C151.431 13.7046 151.477 13.7107 151.45 13.7071C151.437 13.7054 151.445 13.7065 151.431 13.7046C151.418 13.7028 151.345 13.6931 151.303 13.6875C151.245 13.6798 151.272 13.6834 151.207 13.6747C151.203 13.6742 151.204 13.6744 151.2 13.6738C151.196 13.6733 151.201 13.674 151.197 13.6734C151.196 13.6732 151.195 13.6731 151.193 13.6729C151.193 13.6729 151.192 13.6728 151.192 13.6727C151.191 13.6726 151.191 13.6726 151.19 13.6725C151.189 13.6724 151.189 13.6723 151.188 13.6722C151.188 13.6722 151.187 13.6721 151.187 13.672C151.181 13.6713 151.185 13.6718 151.18 13.6711C151.118 13.6629 151.213 13.6755 151.151 13.6673C151.061 13.6553 151.181 13.6713 151.09 13.6591C151.088 13.6588 150.821 13.6233 150.791 13.6193L150.394 16.5929C150.571 16.6165 150.843 16.6528 150.907 16.6612C150.915 16.6624 150.908 16.6615 150.917 16.6626C150.918 16.6627 150.921 16.6632 150.922 16.6633C150.924 16.6636 150.925 16.6637 150.927 16.664C150.931 16.6645 150.929 16.6642 150.932 16.6646C150.934 16.6649 150.933 16.6647 150.935 16.665C150.935 16.6651 150.936 16.6652 150.937 16.6653C150.948 16.6668 150.931 16.6645 150.942 16.6659C150.942 16.666 150.943 16.666 150.943 16.6661C150.943 16.6661 150.944 16.6662 150.944 16.6662C150.945 16.6663 150.945 16.6663 150.945 16.6664C150.946 16.6665 150.946 16.6665 150.947 16.6666C150.974 16.6702 150.956 16.6678 150.981 16.6712C151.017 16.6759 150.977 16.6706 151.011 16.6751C151.035 16.6783 151.012 16.6753 151.035 16.6783C151.06 16.6817 151.048 16.6801 151.067 16.6826C151.08 16.6844 151.058 16.6814 151.071 16.6832C151.074 16.6835 151.07 16.683 151.072 16.6833C151.072 16.6833 151.073 16.6834 151.073 16.6834C151.074 16.6835 151.073 16.6834 151.073 16.6835C151.074 16.6835 151.074 16.6835 151.074 16.6835C151.074 16.6835 151.074 16.6835 151.074 16.6835C151.074 16.6835 151.074 16.6835 151.074 16.6836C151.074 16.6836 151.074 16.6836 151.074 16.6836C151.075 16.6836 151.074 16.6836 151.075 16.6836C151.085 16.6851 151.066 16.6825 151.077 16.6839C151.077 16.6839 151.077 16.6839 151.077 16.6839C151.077 16.6839 151.077 16.6839 151.077 16.6839C151.077 16.6839 151.077 16.6839 151.077 16.6839C151.077 16.6839 151.077 16.6839 151.077 16.6839C151.078 16.6841 151.076 16.6838 151.077 16.684C151.078 16.6841 151.077 16.6839 151.077 16.684C151.077 16.684 151.077 16.684 151.077 16.684L151.077 16.684C151.077 16.684 151.077 16.684 151.077 16.684C151.077 16.684 151.077 16.684 151.275 15.1971ZM150.791 13.6193C150.301 13.554 149.682 13.4909 148.942 13.4292L148.693 16.4188C149.409 16.4785 149.974 16.5368 150.394 16.5929L150.791 13.6193ZM149.011 13.4366C148.244 13.3365 147.451 13.2874 146.632 13.2874V16.2874C147.331 16.2874 147.994 16.3294 148.623 16.4114L149.011 13.4366ZM146.632 13.2874C145.514 13.2874 144.493 13.373 143.738 13.6561L144.792 16.4651C145.008 16.3839 145.565 16.2874 146.632 16.2874V13.2874ZM143.738 13.6561C143.274 13.8302 142.817 14.1275 142.487 14.6023C142.156 15.0777 142.036 15.6098 142.036 16.1076H145.036C145.036 16.0895 145.038 16.1891 144.95 16.3155C144.862 16.4413 144.77 16.473 144.792 16.4651L143.738 13.6561ZM142.036 16.1076C142.036 16.7365 142.235 17.3496 142.671 17.8577L144.948 15.9053C144.975 15.9364 145.002 15.9798 145.019 16.0295C145.036 16.0774 145.036 16.1078 145.036 16.1076H142.036ZM142.749 17.9422C143.055 18.2479 143.46 18.5326 143.888 18.7963L145.461 16.2414C145.1 16.0195 144.929 15.8793 144.87 15.8209L142.749 17.9422ZM143.842 18.7669L144.389 19.1311L146.053 16.635L145.507 16.2708L143.842 18.7669ZM144.252 26.4792L148.44 19.9693L145.917 18.3461L141.729 24.856L144.252 26.4792ZM146.373 20.4232L147.875 21.3792L149.486 18.8482L147.984 17.8922L146.373 20.4232ZM147.867 21.3738C149.195 22.2317 150.043 23.0919 150.526 23.9196L153.117 22.408C152.326 21.0506 151.08 19.8774 149.494 18.8537L147.867 21.3738ZM150.536 23.9356C150.99 24.6935 151.278 25.7817 151.278 27.3065H154.278C154.278 25.4322 153.928 23.7586 153.108 22.3921L150.536 23.9356ZM151.278 27.3065C151.278 29.7181 150.596 31.2825 149.464 32.2819L151.448 34.5314C153.411 32.7994 154.278 30.297 154.278 27.3065H151.278ZM149.476 32.2709C148.333 33.2572 146.24 33.926 142.841 33.9553L142.867 36.9552C146.509 36.9238 149.484 36.2268 151.436 34.5424L149.476 32.2709ZM142.854 33.9552C141.363 33.9552 140.007 33.8675 138.782 33.6965L138.367 36.6677C139.751 36.8609 141.248 36.9552 142.854 36.9552V33.9552ZM138.752 33.6926C137.532 33.5475 136.43 33.3461 135.443 33.092L134.695 35.9975C135.832 36.2897 137.067 36.5132 138.397 36.6716L138.752 33.6926ZM136.56 34.7092L137.243 28.518L134.261 28.1891L133.578 34.3803L136.56 34.7092ZM135.752 28.3535C135.512 29.8342 135.512 29.8342 135.512 29.8342C135.512 29.8342 135.512 29.8342 135.512 29.8342C135.512 29.8342 135.512 29.8342 135.512 29.8342C135.512 29.8342 135.512 29.8342 135.512 29.8342C135.512 29.8342 135.512 29.8342 135.512 29.8342C135.512 29.8343 135.512 29.8342 135.512 29.8342C135.513 29.8344 135.512 29.8343 135.513 29.8344C135.515 29.8347 135.514 29.8345 135.515 29.8348C135.517 29.835 135.517 29.835 135.518 29.8352C135.519 29.8353 135.52 29.8355 135.52 29.8355C135.522 29.8358 135.521 29.8356 135.522 29.8358C135.523 29.836 135.522 29.8359 135.523 29.836C135.523 29.836 135.523 29.8361 135.524 29.8361C135.524 29.8361 135.524 29.8362 135.524 29.8362C135.524 29.8362 135.525 29.8363 135.525 29.8363C135.525 29.8363 135.525 29.8364 135.525 29.8364C135.529 29.837 135.523 29.836 135.527 29.8366C135.534 29.8377 135.525 29.8363 135.532 29.8374C135.532 29.8375 135.538 29.8384 135.538 29.8384C135.542 29.8391 135.548 29.84 135.553 29.8408C135.566 29.8429 135.557 29.8415 135.571 29.8438C135.575 29.8444 135.577 29.8448 135.581 29.8455C135.593 29.8474 135.575 29.8444 135.587 29.8463C135.593 29.8473 135.586 29.8463 135.592 29.8473C135.62 29.8518 135.588 29.8465 135.617 29.8513C135.637 29.8544 135.624 29.8524 135.645 29.8558C135.714 29.867 135.606 29.8494 135.676 29.8609C135.747 29.8723 135.639 29.8548 135.711 29.8665C135.766 29.8754 135.693 29.8635 135.749 29.8726C135.871 29.8925 135.792 29.8797 135.933 29.9025C135.938 29.9033 135.941 29.9038 135.946 29.9046C135.947 29.9048 135.948 29.905 135.949 29.9052C135.951 29.9053 135.952 29.9055 135.953 29.9057C135.954 29.9059 135.955 29.9061 135.956 29.9063C135.957 29.9064 135.958 29.9066 135.96 29.9068C135.974 29.9091 135.972 29.9089 135.987 29.9113C136.004 29.914 136.027 29.9177 136.045 29.9206C136.062 29.9233 136.043 29.9203 136.06 29.923C136.084 29.927 136.05 29.9214 136.075 29.9255C136.096 29.9289 136.069 29.9245 136.09 29.928C136.13 29.9344 136.066 29.924 136.106 29.9305C136.141 29.9362 136.078 29.926 136.113 29.9317C136.115 29.932 136.116 29.9322 136.117 29.9324C136.119 29.9326 136.12 29.9328 136.121 29.933C136.142 29.9364 136.116 29.9322 136.137 29.9356C136.186 29.9436 136.096 29.9289 136.145 29.9369C136.15 29.9377 136.148 29.9374 136.153 29.9382C136.172 29.9413 136.151 29.9378 136.17 29.9409C136.176 29.9419 136.18 29.9425 136.186 29.9436C136.2 29.9458 136.181 29.9426 136.195 29.9449C136.196 29.9451 136.197 29.9454 136.199 29.9456C136.2 29.9458 136.202 29.9461 136.203 29.9463C136.239 29.9521 136.201 29.9459 136.237 29.9518C136.308 29.9633 136.201 29.9459 136.272 29.9575C136.295 29.9611 136.285 29.9596 136.308 29.9633C136.318 29.9649 136.334 29.9676 136.344 29.9692C136.361 29.972 136.365 29.9725 136.382 29.9753C136.448 29.986 136.392 29.9769 136.459 29.9878C136.516 29.9971 136.422 29.9818 136.479 29.991C136.484 29.9919 136.494 29.9935 136.499 29.9943C136.506 29.9954 136.533 29.9997 136.54 30.0009C136.543 30.0014 136.557 30.0037 136.56 30.0042C136.581 30.0076 136.561 30.0043 136.581 30.0076C136.601 30.0109 136.604 30.0112 136.624 30.0145C136.689 30.0251 136.601 30.0108 136.667 30.0215C136.685 30.0245 136.692 30.0256 136.711 30.0286C136.741 30.0336 136.725 30.0309 136.756 30.0359C136.791 30.0417 136.743 30.0338 136.778 30.0396C136.79 30.0414 136.779 30.0396 136.79 30.0414C136.792 30.0418 136.794 30.0421 136.796 30.0424C136.798 30.0427 136.799 30.043 136.801 30.0433C136.865 30.0536 136.749 30.0349 136.813 30.0452C136.877 30.0556 136.76 30.0366 136.824 30.0471C136.826 30.0474 136.828 30.0477 136.83 30.048C136.832 30.0483 136.834 30.0486 136.836 30.0489C136.846 30.0505 136.838 30.0492 136.848 30.0508C136.898 30.059 136.845 30.0503 136.895 30.0585C136.938 30.0654 136.948 30.0672 136.992 30.0742C137.006 30.0765 137.028 30.0801 137.042 30.0823C137.084 30.0891 137.05 30.0837 137.092 30.0905C137.177 30.1042 137.111 30.0935 137.196 30.1073L137.676 27.146C137.669 27.1448 137.658 27.143 137.65 27.1418C137.592 27.1323 137.682 27.1469 137.624 27.1375C137.597 27.1331 137.6 27.1336 137.573 27.1292C137.535 27.1231 137.509 27.1189 137.472 27.1129C137.451 27.1094 137.445 27.1085 137.423 27.105C137.415 27.1036 137.42 27.1044 137.411 27.103C137.409 27.1026 137.402 27.1015 137.399 27.1011C137.386 27.0989 137.401 27.1013 137.387 27.0991C137.376 27.0974 137.386 27.099 137.375 27.0972C137.333 27.0904 137.393 27.1001 137.352 27.0933C137.34 27.0914 137.34 27.0915 137.328 27.0895C137.322 27.0886 137.322 27.0885 137.316 27.0876C137.314 27.0873 137.312 27.087 137.311 27.0867C137.309 27.0864 137.307 27.0861 137.305 27.0857C137.285 27.0826 137.301 27.0851 137.282 27.082C137.28 27.0817 137.278 27.0814 137.276 27.0811C137.274 27.0807 137.272 27.0804 137.27 27.0801C137.268 27.0798 137.266 27.0795 137.264 27.0792C137.262 27.0789 137.261 27.0786 137.259 27.0783C137.253 27.0774 137.241 27.0755 137.236 27.0746C137.187 27.0667 137.262 27.0788 137.213 27.0709C137.186 27.0665 137.218 27.0718 137.191 27.0673C137.18 27.0655 137.114 27.0548 137.104 27.0532C137.037 27.0423 137.128 27.0571 137.062 27.0463C137.003 27.0368 137.079 27.0491 137.02 27.0396C136.975 27.0323 136.983 27.0336 136.939 27.0265C136.92 27.0234 136.919 27.0232 136.9 27.0202C136.861 27.0139 136.93 27.0249 136.891 27.0186C136.886 27.0179 136.885 27.0177 136.881 27.0171C136.88 27.0168 136.878 27.0165 136.876 27.0163C136.875 27.016 136.873 27.0158 136.872 27.0155C136.851 27.0122 136.882 27.0172 136.862 27.014C136.848 27.0117 136.867 27.0147 136.853 27.0124C136.851 27.0122 136.85 27.0119 136.848 27.0117C136.846 27.0114 136.845 27.0112 136.843 27.0109C136.829 27.0086 136.839 27.0103 136.825 27.0079C136.808 27.0052 136.804 27.0046 136.788 27.002C136.733 26.993 136.807 27.0051 136.752 26.9962C136.671 26.983 136.798 27.0036 136.717 26.9905C136.678 26.9841 136.688 26.9858 136.65 26.9796C136.572 26.9669 136.663 26.9816 136.586 26.9692C136.554 26.964 136.556 26.9643 136.525 26.9593C136.495 26.9544 136.54 26.9618 136.51 26.9569C136.483 26.9525 136.523 26.9589 136.496 26.9546C136.44 26.9455 136.523 26.9589 136.467 26.95C136.444 26.9461 136.436 26.9448 136.413 26.9412C136.176 26.9026 136.265 26.9171 136.097 26.8899C136.076 26.8865 136.115 26.8929 136.094 26.8894C136.092 26.8891 136.093 26.8892 136.091 26.8889C136.09 26.8888 136.09 26.8887 136.089 26.8886C136.089 26.8885 136.088 26.8885 136.088 26.8884C136.083 26.8877 136.089 26.8886 136.084 26.8879C136.077 26.8866 136.08 26.8872 136.073 26.8859C136.056 26.8833 136.077 26.8867 136.061 26.8841C136.042 26.881 136.076 26.8864 136.056 26.8833C136.056 26.8832 136.055 26.8831 136.055 26.8831C136.055 26.883 136.054 26.8829 136.054 26.8829C136.053 26.8828 136.053 26.8827 136.052 26.8827C136.052 26.8826 136.052 26.8825 136.051 26.8825C136.038 26.8803 136.055 26.8831 136.042 26.8809C136.041 26.8808 136.034 26.8796 136.033 26.8795C136.023 26.8779 136.035 26.8798 136.025 26.8783C136.024 26.8781 136.023 26.8779 136.022 26.8777C136.016 26.8767 136.024 26.8781 136.018 26.8771C136.016 26.8767 136.018 26.877 136.015 26.8766C136.008 26.8755 136.019 26.8772 136.012 26.8761C136.006 26.8752 136.017 26.8769 136.011 26.8759C136.01 26.8759 136.01 26.8757 136.009 26.8757C136.009 26.8756 136.009 26.8756 136.009 26.8756C136.008 26.8755 136.008 26.8755 136.008 26.8755C136.008 26.8754 136.008 26.8754 136.007 26.8754C136.007 26.8753 136.007 26.8753 136.007 26.8753C135.985 26.8717 136.019 26.8773 135.999 26.8739C135.996 26.8736 135.998 26.8738 135.996 26.8735C135.993 26.873 135.996 26.8735 135.994 26.8731C135.993 26.873 135.993 26.873 135.992 26.8729C135.992 26.8729 135.992 26.8729 135.992 26.8729C135.992 26.8729 135.992 26.8729 135.992 26.8729C135.992 26.8729 135.992 26.8729 135.992 26.8729C135.992 26.8729 135.992 26.8729 135.992 26.8729C135.992 26.8729 135.992 26.8729 135.992 26.8729C135.992 26.8729 135.992 26.8729 135.992 26.8729C135.992 26.8729 135.992 26.8729 135.752 28.3535ZM137.235 30.1132C138.453 30.2777 140.015 30.3543 141.898 30.3543V27.3543C140.077 27.3543 138.665 27.2791 137.637 27.1402L137.235 30.1132ZM141.898 30.3543C142.833 30.3543 143.784 30.2227 144.547 29.765C145.432 29.234 145.901 28.3609 145.901 27.352H142.901C142.901 27.3899 142.895 27.3502 142.934 27.2808C142.973 27.2093 143.017 27.1844 143.004 27.1925C142.98 27.2065 142.893 27.2507 142.699 27.2895C142.507 27.3279 142.244 27.3543 141.898 27.3543V30.3543ZM145.901 27.352C145.901 26.0346 144.941 25.1425 144.072 24.5863L142.455 27.1131C142.744 27.2984 142.874 27.4329 142.921 27.4953C142.957 27.5431 142.901 27.4872 142.901 27.352H145.901ZM144.095 24.6016L143.822 24.4195L142.158 26.9157L142.431 27.0978L144.095 24.6016Z" fill="#373A40" mask="url(#path-1-inside-1_1_62)"/>
</svg>
