<svg width="24" height="24" viewBox="0 0 24 24" fill="none" xmlns="http://www.w3.org/2000/svg">
<path d="M12 0C5.376 0 0 5.376 0 12C0 18.624 5.376 24 12 24C18.624 24 24 18.624 24 12C24 5.376 18.624 0 12 0ZM5.7 14.568C5.7 15.06 5.292 15.468 4.8 15.468C4.308 15.468 3.9 15.06 3.9 14.568V9.432C3.9 8.94 4.308 8.532 4.8 8.532C5.292 8.532 5.7 8.94 5.7 9.432V14.568ZM9.3 16.284C9.3 16.776 8.892 17.184 8.4 17.184C7.908 17.184 7.5 16.776 7.5 16.284V7.716C7.5 7.224 7.908 6.816 8.4 6.816C8.892 6.816 9.3 7.224 9.3 7.716V16.284ZM12.9 18C12.9 18.492 12.492 18.9 12 18.9C11.508 18.9 11.1 18.492 11.1 18V6C11.1 5.508 11.508 5.1 12 5.1C12.492 5.1 12.9 5.508 12.9 6V18ZM16.5 16.284C16.5 16.776 16.092 17.184 15.6 17.184C15.108 17.184 14.7 16.776 14.7 16.284V7.716C14.7 7.224 15.108 6.816 15.6 6.816C16.092 6.816 16.5 7.224 16.5 7.716V16.284ZM20.1 14.568C20.1 15.06 19.692 15.468 19.2 15.468C18.708 15.468 18.3 15.06 18.3 14.568V9.432C18.3 8.94 18.708 8.532 19.2 8.532C19.692 8.532 20.1 8.94 20.1 9.432V14.568Z" fill="#EEEEEE"/>
</svg>
